<svg width="67" height="79" viewBox="0 0 67 79" fill="none" xmlns="http://www.w3.org/2000/svg">
<path d="M51.3032 0.103226C55.9828 0.103226 59.6301 1.89247 62.2452 5.47097C64.929 8.98064 66.271 13.7978 66.271 19.9226C66.271 24.6021 65.514 29.1097 64 33.4452C62.5548 37.7118 60.5591 41.5656 58.0129 45.0065C55.4667 48.4473 52.5763 51.1656 49.3419 53.1613C46.1075 55.157 42.7699 56.1548 39.329 56.1548C36.3699 56.1548 33.7548 55.4323 31.4839 53.9871C29.2129 52.5419 27.6301 50.5806 26.7355 48.1032L27.0452 47.1742C27.9398 49.0323 29.1097 50.443 30.5548 51.4064C32.0688 52.3699 33.7892 52.8516 35.7161 52.8516C38.4688 52.8516 41.0495 51.9914 43.4581 50.271C45.9355 48.4817 48.1376 46.0387 50.0645 42.9419C51.9914 39.8452 53.5054 36.3355 54.6065 32.4129C55.7075 28.4215 56.2581 24.2581 56.2581 19.9226C56.2581 14.7613 55.4323 10.8387 53.7806 8.15484C52.129 5.47097 49.686 4.12903 46.4516 4.12903C44.5935 4.12903 42.8387 4.67957 41.1871 5.78064C39.6043 6.88172 38.1935 8.46451 36.9548 10.529L36.8516 9.70322C38.7097 6.53763 40.843 4.16344 43.2516 2.58064C45.729 0.929031 48.4129 0.103226 51.3032 0.103226ZM23.329 28.0774L27.7677 12.2839C28.5935 9.53118 28.7656 7.36344 28.2839 5.78064C27.8021 4.12903 26.7011 3.30322 24.9806 3.30322C23.4667 3.30322 21.9527 4.0258 20.4387 5.47097C18.9935 6.84731 17.5484 8.91182 16.1032 11.6645L14.0387 15.4839H12.9032L15.2774 11.0452C16.2409 9.25591 17.3419 7.53548 18.5806 5.88387C19.8194 4.16344 21.2989 2.75269 23.0194 1.65161C24.7398 0.550537 26.7355 0 29.0065 0C31.4151 0 33.3419 0.619354 34.7871 1.85806C36.2323 3.09677 37.1269 4.8172 37.471 7.01935C37.8839 9.2215 37.6774 11.8021 36.8516 14.7613L33.1355 28.0774H23.329ZM14.4516 78.0387C12.8688 78.0387 11.3204 78.0387 9.80645 78.0387C8.22366 78.1075 6.64086 78.1419 5.05806 78.1419C3.47527 78.2108 1.78925 78.2796 0 78.3484L0.309677 77.2129L2.27097 77.0064C4.19785 76.8 5.78065 76.4559 7.01935 75.9742C8.18925 75.4925 9.1871 74.7011 10.0129 73.6C10.7699 72.5677 11.3892 71.1914 11.871 69.471L23.329 28.0774H33.1355L21.5742 69.471C20.8172 72.086 20.8516 73.9097 21.6774 74.9419C22.5032 75.9742 24.4301 76.628 27.4581 76.9032L31.7935 77.2129L31.4839 78.4516C29.6258 78.3828 27.7333 78.314 25.8064 78.2452C23.8796 78.1763 21.9183 78.1075 19.9226 78.0387C17.9269 78.0387 15.8968 78.0387 13.8323 78.0387H14.4516Z" fill="white"/>
</svg>
