<svg width="173" height="173" viewBox="0 0 173 173" fill="none" xmlns="http://www.w3.org/2000/svg">
<rect width="173" height="173" rx="86.5" fill="white"/>
<path d="M110.899 34.1382C117.183 34.1382 122.082 36.5329 125.593 41.3224C129.198 46.0197 131 52.4671 131 60.6645C131 66.9276 129.983 72.9605 127.95 78.7632C126.009 84.4737 123.329 89.6316 119.91 94.2368C116.49 98.8421 112.609 102.48 108.265 105.151C103.921 107.822 99.4387 109.158 94.8178 109.158C90.8437 109.158 87.3318 108.191 84.2819 106.257C81.2321 104.322 79.1064 101.697 77.905 98.3816L78.3209 97.1381C79.5223 99.625 81.0935 101.513 83.0343 102.803C85.0675 104.092 87.378 104.737 89.9657 104.737C93.6625 104.737 97.1282 103.586 100.363 101.283C103.69 98.8882 106.647 95.6184 109.235 91.4737C111.823 87.3289 113.856 82.6316 115.335 77.3816C116.814 72.0395 117.553 66.4671 117.553 60.6645C117.553 53.7566 116.444 48.5066 114.226 44.9145C112.008 41.3224 108.727 39.5263 104.383 39.5263C101.888 39.5263 99.5312 40.2632 97.3131 41.7368C95.1874 43.2105 93.2928 45.3289 91.6293 48.0921L91.4907 46.9868C93.986 42.75 96.851 39.5724 100.086 37.4539C103.413 35.2434 107.017 34.1382 110.899 34.1382ZM73.3302 71.5789L79.2913 50.4408C80.4003 46.7566 80.6314 43.8553 79.9844 41.7368C79.3375 39.5263 77.8588 38.421 75.5483 38.421C73.5151 38.421 71.4818 39.3882 69.4486 41.3224C67.5078 43.1645 65.567 45.9276 63.6262 49.6118L60.8536 54.7237H59.3287L62.5171 48.7829C63.811 46.3882 65.2897 44.0855 66.9533 41.875C68.6168 39.5724 70.6038 37.6842 72.9143 36.2105C75.2248 34.7368 77.905 34 80.9548 34C84.1895 34 86.7773 34.8289 88.7181 36.4868C90.6589 38.1447 91.8603 40.4474 92.3224 43.3947C92.8769 46.3421 92.5997 49.796 91.4907 53.7566L86.5 71.5789H73.3302ZM61.4081 138.447C59.2825 138.447 57.203 138.447 55.1698 138.447C53.0441 138.539 50.9185 138.586 48.7928 138.586C46.6672 138.678 44.4029 138.77 42 138.862L42.4159 137.342L45.0498 137.066C47.6376 136.789 49.7632 136.329 51.4268 135.684C52.9979 135.039 54.338 133.98 55.447 132.507C56.4637 131.125 57.2954 129.283 57.9424 126.98L73.3302 71.5789H86.5L70.9735 126.98C69.9569 130.48 70.0031 132.921 71.1121 134.303C72.2212 135.684 74.8089 136.559 78.8754 136.928L84.6978 137.342L84.2819 139C81.7866 138.908 79.2451 138.816 76.6573 138.724C74.0696 138.632 71.4356 138.539 68.7555 138.447C66.0753 138.447 63.3489 138.447 60.5763 138.447H61.4081Z" fill="black"/>
</svg>
